<?xml version="1.0" encoding="UTF-8"?>
<svg xmlns="http://www.w3.org/2000/svg" style="stroke-dasharray:none; shape-rendering:auto; font-family:'Arial'; text-rendering:auto; fill-opacity:1; color-interpolation:auto; color-rendering:auto; font-size:12; fill:black; stroke:black; image-rendering:auto; stroke-miterlimit:10; stroke-linecap:square; stroke-linejoin:miter; font-style:normal; stroke-width:1; stroke-dashoffset:0; font-weight:normal; stroke-opacity:1;" contentScriptType="text/ecmascript" preserveAspectRatio="xMidYMid meet" zoomAndPan="magnify" version="1.0" contentStyleType="text/css" xml:xlink="http://www.w3.org/1999/xlink" width="1030" height="651"><rect x="10" y="10" width="1020" height="641" ry="0" rx="0" style="stroke:#000000; fill:#FFFFFF" /><rect x="40" y="10" width="990" height="320" ry="0" rx="0" style="stroke:#000000; fill:#C0C0C0" /><g componentSequence="5"><text x="-170" y="47" transform="rotate(270)" text-anchor="middle" style="font-weight:bold;font-size:10px;stroke:none; fill:#434343"><tspan dy="14" x="-170">Solicitante</tspan></text></g><rect x="40" y="330" width="990" height="321" ry="0" rx="0" style="stroke:#000000; fill:#C0C0C0" /><g componentSequence="3"><text x="-490" y="47" transform="rotate(270)" text-anchor="middle" style="font-weight:bold;font-size:10px;stroke:none; fill:#434343"><tspan dy="14" x="-490">Almoxarifado</tspan></text></g><g componentSequence="1"><text x="-330" y="17" transform="rotate(270)" text-anchor="middle" style="font-weight:bold;font-size:10px;stroke:none; fill:#434343"><tspan dy="14" x="-330">Entrega de Remessa</tspan></text></g><g sequence="4"><ellipse cx="157" cy="74" rx="17" ry="17" stroke-width="1" style="fill:url(#linearGradient66FF6696FF96B6FFB6_26038564);" stroke="336633" /></g><rect x="180" y="20" width="105" height="69" ry="5" rx="5" style="stroke:none; fill:#FFFFE0" /><g componentSequence="36"><text x="190" y="43" text-anchor="left" style="font-weight:bold;font-size:10px;stroke:none; fill:#000000"><tspan dy="14" x="190">Preencher</tspan><tspan dy="14" x="190">dados da</tspan><tspan dy="14" x="190">entrega</tspan></text></g><path style="fill:none; stroke-width:1; stroke:#000000;" d="M200.0 20.0 L180.0 20.0 L180.0 89.0 L200.0 89.0" /><g sequence="37"><rect x="105" y="385" width="106" height="84" ry="5" rx="5" style="fill:url(#linearGradientF8FBFEEDF5FCDEEDFAD4E7F8E2E5E9_21669797);" stroke="191970" /></g><g componentSequence="37"><text x="158" y="400" text-anchor="middle" style="font-weight:bold;font-size:10px;stroke:none; fill:#333399"><tspan dy="14" x="158">Confirmar o</tspan><tspan dy="14" x="158">recebimento da</tspan><tspan dy="14" x="158">mercadoria</tspan></text></g><g sequence="39"><ellipse cx="627" cy="427" rx="17" ry="17" stroke-width="3" style="fill:url(#linearGradientFF6666FF9696FFB6B6_24459860);" stroke="993333" /></g><g sequence="42"><rect x="430" y="125" width="106" height="84" ry="5" rx="5" style="fill:url(#linearGradientF8FBFEEDF5FCDEEDFAD4E7F8E2E5E9_7843230);" stroke="191970" /></g><g componentSequence="42"><text x="483" y="140" text-anchor="middle" style="font-weight:bold;font-size:10px;stroke:none; fill:#333399"><tspan dy="14" x="483">Conhecimento</tspan><tspan dy="14" x="483">de mercadoria</tspan><tspan dy="14" x="483">não entregue</tspan></text></g><g sequence="43"><polygon points=" 450 406 480 376 510 406 480 436 450 406" style="fill:url(#linearGradientFAFBFCFFFFCC_22989253);" stroke="000000" /></g><g componentSequence="43"><text x="480" y="446" text-anchor="middle" style="font-weight:bold;font-size:10px;stroke:none; fill:#333399"><tspan dy="14" x="480">Entregue</tspan><tspan dy="14" x="480">?</tspan></text></g><g sequence="49"><ellipse cx="647" cy="167" rx="17" ry="17" stroke-width="3" style="fill:url(#linearGradientFF6666FF9696FFB6B6_28648772);" stroke="993333" /></g><g sequence="49"><polygon points=" 638 163 643 158 648 163 653 158 658 163 653 168 658 173 653 178 648 173 643 178 638 173 643 168" style="stroke:none; fill:#993333" /></g><g componentSequence="41"><text x="167" y="238" style="font-size:10px;font-weight:none;stroke:none; fill:#333399" text-anchor="left" /></g><g componentSequence="44"><text x="340" y="427" style="font-size:10px;font-weight:none;stroke:none; fill:#333399" text-anchor="left" /></g><g componentSequence="45"><text x="570" y="427" style="font-size:10px;font-weight:none;stroke:none; fill:#333399" text-anchor="left" /></g><g componentSequence="46"><text x="491" y="292" style="font-size:10px;font-weight:none;stroke:none; fill:#333399" text-anchor="left" /></g><g componentSequence="48"><text x="593" y="167" style="font-size:10px;font-weight:none;stroke:none; fill:#333399" text-anchor="left" /></g><path style="fill:none; stroke:#000000;stroke-width:1" d="M157.0 91.0 L157.0 384.0" /><polygon style="fill:#000000; stroke:#000000;" points=" 162 374 157 384 152 374 157 376" /><path style="fill:none; stroke:#000000;stroke-width:1" d="M211.0 427.0 L449.0 427.0" /><polygon style="fill:#000000; stroke:#000000;" points=" 439 422 449 427 439 432 441 427" /><path style="fill:none; stroke:#000000;stroke-width:1" d="M510.0 427.0 L609.0 427.0" /><polygon style="fill:#000000; stroke:#000000;" points=" 599 422 609 427 599 432 601 427" /><path style="fill:none; stroke:#000000;stroke-width:1" d="M536.0 167.0 L629.0 167.0" /><polygon style="fill:#000000; stroke:#000000;" points=" 619 162 629 167 619 172 621 167" /><path style="fill:none; stroke:#000000;stroke-width:1" d="M480.0 375.0 L482.0 209.0" /><polygon style="fill:#000000; stroke:#000000;" points=" 477 219 482 209 487 219 482 217" /><defs><linearGradient xmlns:xlink="http://www.w3.org/1999/xlink" xlink:href="#linearGradient66FF6696FF96B6FFB6" id="linearGradient66FF6696FF96B6FFB6_26038564" x1="0" y1="57.0" x2="0" y2="92.0" gradientUnits="userSpaceOnUse" xlink:type="simple" xlink:actuate="onLoad" xlink:show="other" /><linearGradient id="linearGradient66FF6696FF96B6FFB6"><stop style="stop-color:#66FF66;stop-opacity:1;" offset="0.0" id="stop66FF66" /><stop style="stop-color:#96FF96;stop-opacity:1;" offset="0.5" id="stop96FF96" /><stop style="stop-color:#B6FFB6;stop-opacity:1;" offset="1.0" id="stopB6FFB6" /></linearGradient><linearGradient xmlns:xlink="http://www.w3.org/1999/xlink" xlink:href="#linearGradientF8FBFEEDF5FCDEEDFAD4E7F8E2E5E9" id="linearGradientF8FBFEEDF5FCDEEDFAD4E7F8E2E5E9_21669797" x1="0" y1="385.0" x2="0" y2="491.0" gradientUnits="userSpaceOnUse" xlink:type="simple" xlink:actuate="onLoad" xlink:show="other" /><linearGradient id="linearGradientF8FBFEEDF5FCDEEDFAD4E7F8E2E5E9"><stop style="stop-color:#F8FBFE;stop-opacity:1;" offset="0.0" id="stopF8FBFE" /><stop style="stop-color:#EDF5FC;stop-opacity:1;" offset="0.25" id="stopEDF5FC" /><stop style="stop-color:#DEEDFA;stop-opacity:1;" offset="0.5" id="stopDEEDFA" /><stop style="stop-color:#D4E7F8;stop-opacity:1;" offset="0.75" id="stopD4E7F8" /><stop style="stop-color:#E2E5E9;stop-opacity:1;" offset="1.0" id="stopE2E5E9" /></linearGradient><linearGradient xmlns:xlink="http://www.w3.org/1999/xlink" xlink:href="#linearGradientFF6666FF9696FFB6B6" id="linearGradientFF6666FF9696FFB6B6_24459860" x1="0" y1="410.0" x2="0" y2="445.0" gradientUnits="userSpaceOnUse" xlink:type="simple" xlink:actuate="onLoad" xlink:show="other" /><linearGradient id="linearGradientFF6666FF9696FFB6B6"><stop style="stop-color:#FF6666;stop-opacity:1;" offset="0.0" id="stopFF6666" /><stop style="stop-color:#FF9696;stop-opacity:1;" offset="0.5" id="stopFF9696" /><stop style="stop-color:#FFB6B6;stop-opacity:1;" offset="1.0" id="stopFFB6B6" /></linearGradient><linearGradient xmlns:xlink="http://www.w3.org/1999/xlink" xlink:href="#linearGradientF8FBFEEDF5FCDEEDFAD4E7F8E2E5E9" id="linearGradientF8FBFEEDF5FCDEEDFAD4E7F8E2E5E9_7843230" x1="0" y1="125.0" x2="0" y2="231.0" gradientUnits="userSpaceOnUse" xlink:type="simple" xlink:actuate="onLoad" xlink:show="other" /><linearGradient xmlns:xlink="http://www.w3.org/1999/xlink" xlink:href="#linearGradientFAFBFCFFFFCC" id="linearGradientFAFBFCFFFFCC_22989253" x1="0" y1="376.0" x2="0" y2="436.0" gradientUnits="userSpaceOnUse" xlink:type="simple" xlink:actuate="onLoad" xlink:show="other" /><linearGradient id="linearGradientFAFBFCFFFFCC"><stop style="stop-color:#FAFBFC;stop-opacity:1;" offset="0.0" id="stopFAFBFC" /><stop style="stop-color:#FFFFCC;stop-opacity:1;" offset="1.0" id="stopFFFFCC" /></linearGradient><linearGradient xmlns:xlink="http://www.w3.org/1999/xlink" xlink:href="#linearGradientFF6666FF9696FFB6B6" id="linearGradientFF6666FF9696FFB6B6_28648772" x1="0" y1="150.0" x2="0" y2="185.0" gradientUnits="userSpaceOnUse" xlink:type="simple" xlink:actuate="onLoad" xlink:show="other" /></defs></svg>
